<?xml version="1.0" encoding="UTF-8"?> <svg xmlns="http://www.w3.org/2000/svg" xmlns:xlink="http://www.w3.org/1999/xlink" version="1.1" id="Layer_2_00000062174949956467363920000011995197135809093547_" x="0px" y="0px" viewBox="0 0 754 179" style="enable-background:new 0 0 754 179;" xml:space="preserve"> <style type="text/css"> .st0{fill:#FFFFFF;} .st1{clip-path:url(#SVGID_00000113349964238372425920000016400037623973747862_);} .st2{fill:#4259B9;} .st3{clip-path:url(#SVGID_00000049190595750007355970000015447098294196482193_);} </style> <g> <g> <path class="st0" d="M316,88.5c0,0-48,90.5-158,90.5S0,88.5,0,88.5S51,0,158,0S316,88.5,316,88.5z"></path> <g> <defs> <path id="SVGID_1_" d="M316,88.5c0,0-48,90.5-158,90.5S0,88.5,0,88.5S51,0,158,0S316,88.5,316,88.5z"></path> </defs> <clipPath id="SVGID_00000092423959007331417860000005817664468632659388_"> <use xlink:href="#SVGID_1_" style="overflow:visible;"></use> </clipPath> <g style="clip-path:url(#SVGID_00000092423959007331417860000005817664468632659388_);"> <circle class="st2" cx="158" cy="143.9" r="92.5"></circle> </g> <path style="clip-path:url(#SVGID_00000092423959007331417860000005817664468632659388_);" d="M182,143.4 c-10.8,0-19.5-8.7-19.5-19.5c0-8.7,5.6-16,13.4-18.5c-5.5-2.5-11.5-4-17.9-4c-23.5,0-42.5,19-42.5,42.5s19,42.5,42.5,42.5 s42.5-19,42.5-42.5c0-3.7-0.5-7.3-1.4-10.7C195.8,139.3,189.4,143.4,182,143.4z"></path> </g> </g> <g> <path class="st0" d="M754,88.5c0,0-48,90.5-158,90.5S438,88.5,438,88.5S489,0,596,0S754,88.5,754,88.5z"></path> <g> <defs> <path id="SVGID_00000044872704501160953140000006586319285438365066_" d="M754,88.5c0,0-48,90.5-158,90.5S438,88.5,438,88.5 S489,0,596,0S754,88.5,754,88.5z"></path> </defs> <clipPath id="SVGID_00000152963944622266124440000017482284879437369234_"> <use xlink:href="#SVGID_00000044872704501160953140000006586319285438365066_" style="overflow:visible;"></use> </clipPath> <g style="clip-path:url(#SVGID_00000152963944622266124440000017482284879437369234_);"> <circle class="st2" cx="596" cy="143.9" r="92.5"></circle> </g> <path style="clip-path:url(#SVGID_00000152963944622266124440000017482284879437369234_);" d="M620,143.4 c-10.8,0-19.5-8.7-19.5-19.5c0-8.7,5.6-16,13.4-18.5c-5.5-2.5-11.5-4-17.9-4c-23.5,0-42.5,19-42.5,42.5s19,42.5,42.5,42.5 s42.5-19,42.5-42.5c0-3.7-0.5-7.3-1.4-10.7C633.8,139.3,627.4,143.4,620,143.4z"></path> </g> </g> </g> </svg> 