<?xml version="1.0" encoding="UTF-8"?> <svg xmlns="http://www.w3.org/2000/svg" xmlns:xlink="http://www.w3.org/1999/xlink" id="Layer_2" viewBox="0 0 754 179"><defs><style> .cls-1 { fill: none; } .cls-2 { fill: #4259b9; } .cls-3 { clip-path: url(#clippath-1); } .cls-4 { fill: #fff; } .cls-5 { clip-path: url(#clippath); } </style><clipPath id="clippath"><path class="cls-1" d="M754,88.5s-48,90.5-158,90.5-158-90.5-158-90.5c0,0,51-88.5,158-88.5s158,88.5,158,88.5Z"></path></clipPath><clipPath id="clippath-1"><path class="cls-1" d="M316,88.5s-48,90.5-158,90.5S0,88.5,0,88.5C0,88.5,51,0,158,0s158,88.5,158,88.5Z"></path></clipPath></defs><g id="Layer_1-2" data-name="Layer_1"><g><g><path class="cls-4" d="M754,88.5s-48,90.5-158,90.5-158-90.5-158-90.5c0,0,51-88.5,158-88.5s158,88.5,158,88.5Z"></path><g class="cls-5"><circle class="cls-2" cx="685.5" cy="92.5" r="92.5"></circle></g><path d="M708.5,97c-10.77,0-19.5-8.73-19.5-19.5,0-8.65,5.64-15.98,13.44-18.53-5.45-2.54-11.53-3.97-17.94-3.97-23.47,0-42.5,19.03-42.5,42.5s19.03,42.5,42.5,42.5,42.5-19.03,42.5-42.5c0-3.69-.47-7.28-1.36-10.7-3.3,6.07-9.74,10.2-17.14,10.2Z"></path></g><g><path class="cls-4" d="M316,88.5s-48,90.5-158,90.5S0,88.5,0,88.5C0,88.5,51,0,158,0s158,88.5,158,88.5Z"></path><g class="cls-3"><circle class="cls-2" cx="247.5" cy="92.5" r="92.5"></circle></g><path d="M270.5,97c-10.77,0-19.5-8.73-19.5-19.5,0-8.65,5.64-15.98,13.44-18.53-5.45-2.54-11.53-3.97-17.94-3.97-23.47,0-42.5,19.03-42.5,42.5s19.03,42.5,42.5,42.5,42.5-19.03,42.5-42.5c0-3.69-.47-7.28-1.36-10.7-3.3,6.07-9.74,10.2-17.14,10.2Z"></path></g></g></g></svg> 