<?xml version="1.0" encoding="UTF-8"?> <svg xmlns="http://www.w3.org/2000/svg" version="1.1" viewBox="0 0 2255.2 2119.9"><defs><style> .cls-1 { fill: #292222; } .cls-2 { fill: none; } .cls-2, .cls-3 { stroke: #292222; stroke-linecap: round; stroke-linejoin: round; stroke-width: 6px; } .cls-3 { fill: #ffefde; } .cls-4 { fill: #fff0dc; } .cls-5 { fill: #ff87b4; } .cls-6 { fill: #ffc82e; } </style></defs><g><g id="Layer_2"><g id="_x2014_ÎÓÈ_x5F_1"><g><g><g><g><path class="cls-5" d="M107.1,393.5c.5,12.6-.2,25.2-1.9,37.7-32.3-2.2-101.2-12.5-102.2-38-.8-20.3,66.3-43.4,95.3-50.3h.5c5.2,16.9,7.8,39,8.2,50.6h0Z"></path><path class="cls-5" d="M2234.7,156.8c22.5,47.7,21.9,92.2,6.1,143.5-6.2,20.1-23.7,34.5-44.5,37.2-66.5,8.6-153.6,8.6-161.3,8.6h-.7c9.1-70.1,2.4-141.5-26.3-206,29.4-4.5,114.2-16.8,180.5-13.9,19.8.8,37.6,12.6,46.1,30.6h0Z"></path><path class="cls-4" d="M105.2,431.2c1.6-12.5,2.4-25.1,1.9-37.7-.4-11.6-3.1-33.7-8.2-50.7l-1-4.2,161.2-69.8,113.3,66.8-159.9,48.4,136.1,31.4-58.6,59.3h-1.9c0,0-183.5-38.7-183.5-38.7l.7-4.8h0Z"></path><path class="cls-4" d="M1978.4,142.3l29.7-2.2c28.7,64.5,35.4,135.9,26.3,205.9l-130.4,9.6c2.6-24.5,3.2-49.2,1.8-73.9-1.3-24-4.5-48-9.4-71.5-4.3-20.6-10.1-40.9-17.2-60.7l99.3-7.3h0Z"></path><path class="cls-4" d="M1338.7,1203.8c-2.3.6-7.9,3.3-9.9,4.8l-16.8-25.4c8.9-5.4,14.1-3.8,19.3,3.3,3.4,4.7,5.8,10.3,7.5,17.2h0Z"></path><path class="cls-6" d="M1083.9,416.1l-49.2,3.6c9-16.7,14.2-35,17.6-53.8,7.7,18.4,18.2,35.6,31.6,50.2Z"></path><path class="cls-6" d="M885.5,430.8l-595.5,43.9,58.6-59.3,501.3-44.3c6.2,13.1,13.1,25.9,20.6,38.2,4.5,7.3,9.5,14.6,14.9,21.5h0Z"></path><path class="cls-6" d="M824.4,300.3l-454.1,36,2-.6-113.3-66.8,553.7-40.8c1.7,24.4,5.6,48.5,11.7,72.2h0Z"></path><path class="cls-6" d="M849.9,371l-501.3,44.3-136.1-31.4,157.9-47.8,454.1-36c6.2,24.3,14.8,48,25.5,70.8h0Z"></path><path class="cls-6" d="M1905.8,281.8l-358.4,30.2c-14.7-17.4-31.3-33.4-48.7-48.3.4-6.6.7-13.3.8-20l34-2.9,362.9-30.6c5,23.6,8.2,47.5,9.4,71.5h0Z"></path><path class="cls-6" d="M1896.3,210.3l-362.9,30.6-34,2.9c.3-22.2-1.5-44.3-5.9-65.7l385.5-28.4c7.1,19.8,12.9,40.1,17.2,60.7h0Z"></path><path class="cls-6" d="M1905.8,281.8c1.3,24.6.7,49.4-1.8,73.9l-314.2,23.2c-4.5-10.4-9.7-20.4-15.6-30-7.9-13-17-25.3-26.8-36.9l358.4-30.2h0Z"></path><path class="cls-5" d="M1264.5,412.8c-3.4-3-6.8-6.1-10.1-9.2-6.7-6.2-13.3-12.8-20-19.6-12.7-13-25-27.3-35.1-42.7-14-21.5-23.6-45.2-22.8-70.4,0-1.2,0-2.5.2-3.7,1.9-26.5,15.7-50.7,35.6-68.5,10.2-9.1,21.9-16.4,34.4-21.5,9.6-3.9,19.4-6.5,29.5-8.1,29.2-4.7,60-.6,88.1,9.2,6.6,2.3,13.1,4.9,19.5,7.8,30.1,13.4,57.7,32.4,83.9,52.6,3,2.3,6,4.6,9,7,7.4,5.9,14.8,11.9,22,18,17.4,15,34,30.9,48.7,48.3,9.8,11.6,18.9,23.8,26.8,36.9,5.9,9.6,11.1,19.6,15.6,30,16,37.1,22.3,78.5,12.6,117.5-7.2,28.8-22.6,55-39.7,79.3-47.4,67.3-109.8,124-180.9,165.5-17.3,38.2-20.1,80.9-18.6,127.7,1.8,55,9.9,88,19.5,135.2,3.3,16.3,6.4,32.6,9.3,49-5.6,0-11.3,1.6-16.2,4.6-7.5,4.7-15,9.7-25.7,17.6-11.5,8.5-16.3,12.2-21.1,16.6-.3.3-.7.7-1.1,1-6.4,6.6-10.9,16.1-11.3,27.2-8.9,1.6-17.9,5.4-26.4,11.7-8.4,6.2-14.6,12.5-20.5,21.1-8.4,7.7-13.3,14.1-16.4,21.2-2,4.5-3,9.1-3.3,13.8-10.8-1.6-23.4.9-36.6,10.5-12,8.8-21.5,19.9-26.9,31.4-1.4,3-2.3,6.2-2.7,9.4-6.6-2.4-12.7-2.4-16-2.2-11.8,1.1-21.9,7.5-29.4,13.1-6.8,5-14.4,13.4-16.7,26.9-15-1.7-26,4.6-33.3,10-8.2,6.1-14.5,13.4-18.7,21.2-15.4-5.1-34.7-2.8-54,11.3-16.7,12.2-24.4,26.6-24.2,44.9-2.8,15.5,1.1,32.2,11.1,45.8,4,5.4,8.5,9.9,13.5,13.5.7,8.5,3.8,17.1,9.5,24.9,14.2,19.3,43.9,32.1,81.3,4.7,10.8-7.9,18.2-17,22.9-26.6.4.3.9.6,1.3.9,13.3,7.9,29.5,6.4,43.1-3.5,10-7.3,16.3-17,18.6-27.4,1.8-1,3.6-2.2,5.3-3.4,1.5-1.1,3-2.3,4.4-3.7,10.6,1.2,21.9-2.1,31.9-9.5,7.4-5.5,13.8-13,17.2-22.1,10.6.5,21.8-2.9,32-10.4,7.3-5.4,11.7-11.2,14.3-16.5,6.5-.9,12.8-3.6,18.6-7.8,14.4-10.6,22.3-22.6,25.4-34,6.2-1.4,12.5-4.4,18.9-9.1,6.5-4.8,11.1-9.8,14.3-14.8,5.9-1.1,12.4-3.7,19.1-8.6,12-8.8,18.8-21.2,20.3-34.4,13.9,153.3,28.3,659.3,7.3,834-1.2-30.1-112.7-50.3-249.2-45.1-134.7,5.2-243.3,33.1-245,62.8h0c-15.2-235.3-29.1-762.6-6.8-973.6,12.8-121.8,30-249.3-7.9-364.6-73.4-67.1-133.9-189.3-148-295.8l120.9-8.9c16.8,21.3,38.1,38.9,64.4,41.6,34.5,3.6,67.2-20.5,83.9-50.9.3-.6.6-1.1.9-1.7l49.2-3.6c6.6,7.2,13.8,13.7,21.7,19.4,30.2,21.8,70.6,30.6,106,19.1,21.8-7.1,40.9-22.4,52.8-41.8h0Z"></path><path class="cls-1" d="M1421.6,2056c1.2,30.1-108.5,58.8-245,64-136.5,5.2-247.8-15-249.2-45.1,0-.4,0-.8,0-1.2,1.9-29.7,110.3-57.6,245-62.8,136.5-5.2,248.1,14.9,249.2,45.1Z"></path><path class="cls-5" d="M1499.4,243.7c0,6.6-.4,13.3-.8,20-7.2-6.2-14.6-12.2-22-18-3-2.4-6-4.7-9-7-26.2-20.1-53.8-39.1-83.9-52.6-6.3-2.8-12.8-5.4-19.5-7.8-28.1-9.8-58.9-13.9-88.1-9.2-5.3-14.3-11.5-28.4-18.3-42.1-9.6-19-20.9-37.7-35.1-53.4,28.8-35.5,75.9-55.1,121.4-50.5,60.9,6.2,112.2,53.6,135.8,110.1,6.1,14.5,10.5,29.5,13.6,44.8,4.4,21.5,6.1,43.6,5.9,65.7h0Z"></path><path class="cls-4" d="M1414.3,1222c-1.4,13.2-8.3,25.6-20.3,34.4-6.7,4.9-13.2,7.5-19.1,8.6-3.1,5-7.7,10-14.3,14.8-6.3,4.7-12.7,7.7-18.9,9.1-3.1,11.5-10.9,23.4-25.4,34-5.8,4.3-12.1,6.9-18.6,7.8-2.6,5.3-7,11.2-14.3,16.5-10.2,7.5-21.4,10.9-32,10.4-3.4,9.1-9.8,16.6-17.2,22.1-10,7.4-21.3,10.6-31.9,9.5-1.4,1.4-2.9,2.6-4.4,3.7-1.7,1.3-3.5,2.4-5.3,3.4-2.3,10.4-8.6,20-18.6,27.4-13.5,9.9-29.8,11.4-43.1,3.5-.4-.3-.9-.6-1.3-.9-4.6,9.5-12.1,18.7-22.9,26.6-37.3,27.4-67.1,14.6-81.3-4.7-5.7-7.8-8.8-16.4-9.5-24.9-5-3.6-9.5-8.1-13.5-13.5-10-13.6-13.9-30.2-11.1-45.8-.3-18.2,7.5-32.6,24.2-44.9,19.3-14.1,38.5-16.3,54-11.3,4.2-7.9,10.5-15.2,18.7-21.2,7.3-5.3,18.2-11.7,33.3-10,2.3-13.5,9.8-21.9,16.7-26.9,7.5-5.5,17.7-12,29.4-13.1,3.3-.3,9.4-.3,16,2.2.4-3.2,1.3-6.4,2.7-9.4,5.4-11.4,15-22.6,26.9-31.4,13.1-9.7,25.7-12.1,36.6-10.5.2-4.6,1.3-9.3,3.3-13.8,3.1-7.1,7.9-13.4,16.4-21.2,5.9-8.6,12.1-14.9,20.5-21.1,8.5-6.3,17.4-10.1,26.4-11.7.4-11.2,4.9-20.6,11.3-27.2.3-.3.7-.7,1.1-1,4.9-4.4,9.6-8.2,21.1-16.6,10.7-7.9,18.1-12.9,25.7-17.6,4.9-3,10.5-4.6,16.2-4.6,2.1,11.4,4,22.9,5.8,34.5-1.9-1.7-4.2-3.1-5.8-3.6-5.7,3.5-12,7.7-23.6,16.2-11,8-14.8,11.1-18.6,14.5-4.1,4.2-3.3,14.1,4.9,25.4,3.1,4.2,6.4,4.1,17.8-4.3,0,0,22.3,31.9,27.8,39.4,4.8,6.6,7.8,10.5,10.7,11.7,1.3,11.7,2.4,23.5,3.5,35.3h0ZM1375.8,1231.4c9.5-7,10-18.2,3.7-26.8-1.2-1.6-3-3.2-4.7-4-6,3.5-7.2,3.9-19.6.5,1.5-16.9.5-26.2-8.4-38.3-9.7-13.1-22.8-17.9-38.4-6.4-7,5.1-11,9.8-15.2,16.6-13,11.3-14.5,16.3-10.3,22.1,2,2.8,4.5,5.5,7.5,8l11.4,16.4c6.1,9.2,13.7,19.8,19.1,27.3,9.6,13.2,11.9,15.1,21.6,8,8.6-6.3,9.6-10.2,4.6-18.5l-6.2-10c4-.4,8.5,1.4,17.5,5.5,7.4,3.6,10.9,4.4,17.4-.4h0ZM1298.1,1298c10.5-7.7,18.3-18.6,12.4-26.6-2.2-3.1-4.7-3.7-9.8-3.8-14.8-11.6-35.1-32-47.6-45.3-5-5.3-12.1-6.1-21.5.7-8,5.9-14.2,13.1-17.3,19.7,9.4,34.2,28.2,76.1,31,79.9,5.5,7.4,14.6,3.7,19.9-.2,3.3-2.5,5-4.8,5.3-6.6-1.2-1.6-6.7-11.5-7.7-14.1,5.9-4.3,11.4-8.4,14.6-11.4,10.2,9.8,14.6,12.2,20.7,7.7h0ZM1216.1,1354.8c8.6-6.3,9.7-13.4,2.1-24.7-9.2-14.1-32.3-46.4-42-59.7-2.6-3.5-6-5.7-19.6,4.2-3.8,2.8-5.3,6.6-4.6,13.3.4,4,2.3,13.8,3.8,23.3,1,5.3,2.1,11.1,3.3,17.4-4.8-3.2-9.7-6.2-14.4-8.9-8-4.5-17.7-9.7-23.8-11.7-5.1-1.4-8.3-.6-14.2,3.7-10.5,7.7-15.1,18.9-10.9,24.6,2.1,2.9,6.1,6.3,9.9,8.9,14.5,19.7,33.7,45.6,40.9,55.4,2.7,1.6,5.9.8,9.3-1.7,7.2-5.2,8.8-11.4,4.9-18.2-4.7-8.9-14.7-22.7-22.5-33.4l14.2,8.9c5.1,3.2,10.5,7.8,16.1,14.2,2.1,1.4,6.4,1.1,11.3-2.4,8.9-6.5,5.2-17.7-1.7-28-.5-8-1.7-16.1-3-20.9l29.1,39c3.3,1.2,8-.5,11.9-3.3h0ZM1088.5,1428c18.8-13.8,19.7-32.2,10.6-44.6-6.2-8.5-12.6-10.5-26-9.4-24.1,1.5-25.4,1.2-28.2-2.7-1.3-1.8-2.5-4-2.9-5.7,8.7-2.8,13.1-2,18.3,2.5,1.9-.7,3.4-1.4,5.7-3,6.6-4.8,9.2-12.6,2.3-21.9-5.8-7.9-18.9-10.4-34.4,1-9.9,7.3-12.4,13.1-11.4,22.7-2.7,8.6-.2,17.7,4.9,24.7,5.9,8,12.6,11.4,25.1,11.2,22.9-.6,26.6-.2,28,1.7,1.3,1.8,1.3,4.2-1.6,6.4-4.2,3.1-9.4,3.1-23-3.1-1.5.4-2.7,1.3-3.7,2-6.3,4.6-7.2,12.8-1.8,20.2,9,12.2,22.8,9.3,38.1-1.9h0Z"></path><path class="cls-1" d="M1410.8,1186.7c-2.9-1.2-5.9-5.1-10.7-11.7-5.5-7.5-27.8-39.4-27.8-39.4-11.4,8.3-14.7,8.5-17.8,4.3-8.2-11.2-9.1-21.2-4.9-25.4,3.8-3.4,7.6-6.5,18.6-14.5,11.5-8.5,17.9-12.7,23.6-16.2,1.6.5,3.9,1.9,5.8,3.6,1.3,8.3,2.6,16.5,3.8,24.8-1.1,1.2-2.4,2.4-4,3.7,1.3,1.8,3.3,4.7,5.7,8.1,2.9,20.8,5.5,41.7,7.8,62.7h0Z"></path><path class="cls-1" d="M1379.5,1204.7c6.3,8.6,5.8,19.8-3.7,26.8-6.6,4.8-10.1,4-17.4.4-9.1-4.1-13.6-5.9-17.5-5.5l6.2,10c5,8.3,4,12.1-4.6,18.5-9.6,7.1-11.9,5.2-21.6-8-5.5-7.4-13-18.1-19.1-27.3l-11.4-16.4c-3-2.5-5.4-5.2-7.5-8-4.3-5.8-2.8-10.8,10.3-22.1,4.3-6.7,8.2-11.4,15.2-16.6,15.6-11.5,28.8-6.8,38.4,6.4,8.9,12.1,9.9,21.5,8.4,38.3,12.4,3.5,13.7,3,19.6-.5,1.7.8,3.6,2.3,4.7,4h0ZM1328.8,1208.7c2-1.5,7.6-4.3,9.9-4.8-1.7-6.9-4-12.5-7.5-17.2-5.2-7.2-10.4-8.7-19.3-3.3l16.8,25.4h0Z"></path><path class="cls-1" d="M1310.5,1271.4c5.9,8-1.9,18.9-12.4,26.6-6.1,4.5-10.6,2.1-20.7-7.7-3.2,3-8.7,7.1-14.6,11.4,1,2.6,6.5,12.5,7.7,14.1-.3,1.8-1.9,4.1-5.3,6.6-5.3,3.8-14.4,7.6-19.9.2-2.8-3.8-21.6-45.7-31-79.9,3.1-6.5,9.2-13.8,17.3-19.7,9.3-6.9,16.5-6,21.5-.7,12.5,13.3,32.8,33.7,47.6,45.3,5,.1,7.5.8,9.8,3.8h0ZM1254.6,1285.2c2.2-1.6,7.8-5.9,10.1-8.3-5.3-4.8-17.5-17.7-24.6-24.9,2.9,7.6,9.5,22.7,14.5,33.2h0Z"></path><path class="cls-4" d="M1264.7,1276.9c-2.3,2.4-7.9,6.7-10.1,8.3-5-10.5-11.6-25.6-14.5-33.2,7.1,7.2,19.2,20,24.6,24.9h0Z"></path><path class="cls-1" d="M1218.2,1330.1c7.6,11.3,6.5,18.4-2.1,24.7-3.9,2.9-8.6,4.5-11.9,3.3l-29.1-39c1.3,4.9,2.5,12.9,3,20.9,6.8,10.2,10.6,21.4,1.7,28-4.8,3.6-9.1,3.8-11.3,2.4-5.6-6.4-11-11-16.1-14.2l-14.2-8.9c7.8,10.7,17.8,24.5,22.5,33.4,3.9,6.8,2.3,12.9-4.9,18.2-3.3,2.5-6.6,3.3-9.3,1.7-7.2-9.8-26.4-35.6-40.9-55.4-3.8-2.6-7.8-6-9.9-8.9-4.2-5.7.4-16.9,10.9-24.6,5.8-4.3,9.1-5.1,14.2-3.7,6.2,2,15.8,7.2,23.8,11.7,4.7,2.8,9.6,5.8,14.4,8.9-1.2-6.3-2.3-12-3.3-17.4-1.5-9.4-3.4-19.3-3.8-23.3-.7-6.7.8-10.5,4.6-13.3,13.6-10,17-7.8,19.6-4.2,9.7,13.3,32.8,45.6,42,59.7h0Z"></path><path class="cls-5" d="M1222.7,73.6c14.2,15.8,25.6,34.4,35.1,53.4,6.9,13.7,13,27.7,18.3,42.1-10.1,1.6-20,4.3-29.5,8.1-12.5,5.1-24.3,12.4-34.4,21.5-19.9,17.8-33.7,42-35.6,68.5,0,1.2-.1,2.5-.2,3.7-.8,25.2,8.8,48.8,22.8,70.4,10.1,15.4,22.4,29.7,35.1,42.7,6.7,6.8,13.3,13.3,20,19.6,3.4,3.2,6.8,6.2,10.1,9.2-11.9,19.4-31,34.7-52.8,41.8-35.4,11.5-75.8,2.7-106-19.1-7.9-5.7-15.2-12.3-21.7-19.4-13.4-14.6-23.9-31.8-31.6-50.2.8-4.1,1.4-8.2,2-12.4,1.6-10.8,2.7-21.6,3.7-32.4,1.3-13.4,2.5-27,3.3-40.5,1.4-23.7,1.6-47.4-1.2-70.7-.9-7.5-2.1-14.9-3.6-22.3-8.8-41.8-31.8-80.6-66.3-105.5,25.2-20.4,53.2-37.3,84.2-46.3,38.5-11.3,82.1-9.4,116.6,11.2,12,7.2,22.5,16.3,31.8,26.6h0Z"></path><path class="cls-1" d="M1099.1,1383.4c9.1,12.4,8.2,30.8-10.6,44.6-15.3,11.3-29.1,14.2-38.1,1.9-5.5-7.5-4.5-15.6,1.8-20.2,1-.7,2.2-1.6,3.7-2,13.6,6.2,18.7,6.2,23,3.1,2.9-2.1,2.9-4.6,1.6-6.4-1.4-1.9-5.1-2.3-28-1.7-12.5.2-19.2-3.2-25.1-11.2-5.1-7-7.6-16.2-4.9-24.7-1-9.6,1.5-15.4,11.4-22.7,15.5-11.4,28.6-8.8,34.4-1,6.9,9.3,4.2,17.1-2.3,21.9-2.2,1.6-3.7,2.3-5.7,3-5.2-4.5-9.6-5.3-18.3-2.5.4,1.7,1.6,4,2.9,5.7,2.8,3.8,4.2,4.1,28.2,2.7,13.4-1.1,19.8.9,26,9.4h0Z"></path><path class="cls-5" d="M812.7,228.1l-53.4,3.9v-.7c-7.2-78.4,88.1-244.1,226-152.6,1.7,1.1,3.3,2.2,4.9,3.4,34.5,24.9,57.6,63.7,66.3,105.5,1.6,7.4,2.7,14.8,3.6,22.3,2.8,23.4,2.6,47.1,1.2,70.7-.8,13.5-2,27-3.3,40.5-1,10.8-2.2,21.6-3.7,32.4-.6,4.2-1.3,8.3-2,12.4-3.4,18.8-8.5,37.1-17.6,53.8-.3.6-.6,1.1-.9,1.7-16.7,30.4-49.5,54.5-83.9,50.9-26.3-2.8-47.6-20.3-64.4-41.6-5.5-6.9-10.4-14.2-14.9-21.5-7.6-12.4-14.5-25.1-20.6-38.2-10.7-22.7-19.3-46.4-25.5-70.8-6.1-23.6-10-47.8-11.7-72.2h0Z"></path></g><g><path class="cls-2" d="M912.6,735.5c37.9,115.2,20.7,242.7,7.9,364.6-22.3,211.1-8.4,738.3,6.8,973.6"></path><path class="cls-2" d="M1381.6,741c-17.3,38.2-20.1,80.9-18.6,127.7,1.8,55,9.9,88,19.5,135.2,3.3,16.3,6.4,32.6,9.3,49,2,11.4,4,22.9,5.8,34.5l13.2,99.3c1.3,11.7,2.4,23.5,3.5,35.3,13.8,153.3,28.3,659.3,7.3,834"></path><path class="cls-2" d="M1212.2,198.7c10.2-9.1,21.9-16.4,34.4-21.5,9.6-3.9,19.4-6.5,29.5-8.1,29.2-4.7,60-.6,88.1,9.2,6.6,2.3,13.1,4.9,19.5,7.8,30.1,13.4,57.7,32.4,83.9,52.6,3,2.3,6,4.6,9,7,7.4,5.9,14.8,11.9,22,18,17.4,15,33.9,30.9,48.7,48.3,9.8,11.6,18.9,23.8,26.8,36.9,5.9,9.6,11.1,19.6,15.6,30,16,37.1,22.3,78.5,12.6,117.5-7.2,28.8-22.6,55-39.7,79.3-47.4,67.3-109.8,124-180.9,165.5-31.7,18.4-65.1,33.8-99.7,45.8"></path><path class="cls-2" d="M1451.7,521.2c-74.2-27.9-131.7-58.9-187.3-108.4-3.4-3-6.8-6.1-10.1-9.2-6.7-6.2-13.3-12.8-20-19.6-12.7-13-25-27.3-35.1-42.7-14-21.5-23.6-45.2-22.8-70.4,0-1.2,0-2.5.2-3.7,1.9-26.5,15.7-50.8,35.6-68.5"></path><path class="cls-2" d="M1498.6,263.7c.4-6.6.7-13.3.8-20,.3-22.2-1.5-44.2-5.9-65.7-3.1-15.3-7.6-30.3-13.6-44.8-23.6-56.4-75-103.9-135.8-110.1-45.4-4.6-92.2,15.4-121.4,50.5-.3.3-.6.6-.8,1"></path><path class="cls-2" d="M1276.2,169.1c-5.3-14.3-11.5-28.4-18.3-42.1-9.6-19-20.9-37.7-35.1-53.4-9.3-10.3-19.8-19.5-31.8-26.6-34.5-20.6-78-22.5-116.6-11.2-30.9,9.1-59,26-84.2,46.3"></path><path class="cls-2" d="M1083.9,416.1c-13.4-14.6-23.9-31.8-31.6-50.2"></path><path class="cls-2" d="M1264.5,412.8c-11.9,19.4-31,34.7-52.8,41.8-35.4,11.5-75.8,2.7-106-19.1-7.9-5.7-15.2-12.3-21.7-19.4"></path><path class="cls-2" d="M1054.3,353.5c1.6-10.8,2.7-21.6,3.7-32.4,1.3-13.4,2.5-27,3.3-40.5,1.4-23.7,1.6-47.4-1.2-70.7-.9-7.5-2.1-14.9-3.6-22.3-8.8-41.8-31.9-80.5-66.3-105.5-1.6-1.2-3.2-2.3-4.9-3.4-137.9-91.6-233.1,74.2-226,152.6"></path><path class="cls-2" d="M812,213.3c.1,4.9.4,9.9.7,14.8,1.6,24.4,5.6,48.5,11.7,72.2,6.3,24.3,14.8,48,25.5,70.8,6.2,13.1,13.1,25.9,20.6,38.2,4.5,7.3,9.5,14.6,14.9,21.5,16.8,21.3,38.1,38.9,64.4,41.6,34.5,3.6,67.2-20.5,83.9-50.9.3-.6.6-1.1.9-1.7,9.1-16.7,14.2-35,17.6-53.8.8-4.1,1.4-8.2,2-12.4"></path><path class="cls-2" d="M764.6,439.7c14.1,106.6,74.7,228.7,148,295.8,27.3,25,56.3,42.3,85.4,48.5"></path><path class="cls-2" d="M1190.4,531.5c-25.9,53-26.3,114.3-1.1,167"></path><path class="cls-2" d="M1211.4,761.9c11.9,11.8,27,20.3,43.2,24.4"></path><path class="cls-2" d="M1046.5,788.7c29.4,3.5,60.3-9.7,78.1-33.4"></path><path class="cls-2" d="M927.4,2073.7c0,.4,0,.8,0,1.2,1.4,30.1,112.7,50.3,249.2,45.1,136.5-5.2,246.2-33.9,245-64-1.2-30.1-112.7-50.3-249.2-45.1-134.7,5.2-243.1,33.1-245,62.8Z"></path><path class="cls-2" d="M1879.1,149.6c7.1,19.8,12.9,40.1,17.2,60.7,5,23.6,8.2,47.5,9.4,71.5,1.3,24.6.7,49.4-1.8,73.9"></path><path class="cls-2" d="M1978.4,142.3c16.8,38.2,24.7,80.3,23,122"></path><line class="cls-2" x1="2000.7" y1="300.9" x2="1997" y2="328.4"></line><path class="cls-2" d="M1945.4,228c.7-21-2.5-42.2-9.6-62"></path><line class="cls-2" x1="1947.4" y1="280.8" x2="1947.3" y2="304.2"></line><line class="cls-2" x1="288" y1="474.7" x2="104.5" y2="436"></line><line class="cls-2" x1="1034.7" y1="419.8" x2="1083.9" y2="416.1"></line><line class="cls-2" x1="1212.2" y1="198.7" x2="1212.2" y2="198.7"></line><path class="cls-2" d="M1589.7,378.8l444.6-32.8c9.1-70,2.4-141.4-26.3-205.9l-129,9.5-385.5,28.4"></path><polyline class="cls-2" points="885.5 430.8 290 474.7 348.6 415.3 212.4 384 372.3 335.6 259 268.9"></polyline><path class="cls-2" d="M812.7,228.1l-553.7,40.8-161.2,69.8,1,4.2c5.2,17,7.8,39.1,8.2,50.7.5,12.6-.2,25.2-1.9,37.7l-.7,4.8"></path><path class="cls-2" d="M105.2,431.2c-32.3-2.2-101.2-12.5-102.2-38-.8-20.3,66.3-43.4,95.3-50.3"></path><line class="cls-2" x1="270.4" y1="305.5" x2="185" y2="335.5"></line><line class="cls-2" x1="149.3" y1="348.3" x2="126.9" y2="355.3"></line><line class="cls-2" x1="260.9" y1="438.8" x2="196.7" y2="431"></line><line class="cls-2" x1="158.2" y1="420" x2="137.5" y2="416.7"></line><line class="cls-2" x1="179.5" y1="383.2" x2="160.9" y2="383.9"></line><path class="cls-2" d="M2008.1,140.1c29.4-4.5,114.2-16.8,180.5-13.9,19.8.8,37.6,12.6,46.1,30.6,22.5,47.7,21.9,92.2,6.1,143.5-6.2,20.1-23.7,34.5-44.5,37.2-66.5,8.6-153.6,8.6-161.3,8.6"></path><line class="cls-2" x1="824.4" y1="300.3" x2="370.4" y2="336.2"></line><polyline class="cls-2" points="1499.4 243.7 1533.4 240.9 1896.3 210.3"></polyline><line class="cls-2" x1="849.9" y1="371" x2="348.6" y2="415.3"></line><line class="cls-2" x1="1547.3" y1="312" x2="1905.8" y2="281.8"></line><line class="cls-2" x1="1054.3" y1="353.5" x2="1054.3" y2="353.5"></line><path class="cls-2" d="M1391.8,1052.9c-5.6,0-11.3,1.6-16.2,4.6-7.5,4.7-15,9.7-25.7,17.6-11.5,8.5-16.3,12.2-21.1,16.6-.3.3-.7.7-1.1,1-6.4,6.6-10.9,16.1-11.3,27.2-8.9,1.6-17.9,5.4-26.4,11.7-8.4,6.2-14.6,12.5-20.5,21.1-8.4,7.7-13.3,14.1-16.4,21.2-2,4.5-3,9.1-3.3,13.8-10.8-1.6-23.4.9-36.6,10.5-12,8.8-21.5,19.9-26.9,31.4-1.4,3-2.3,6.2-2.7,9.4-6.6-2.4-12.7-2.4-16-2.2-11.8,1.1-21.9,7.5-29.4,13.1-6.8,5-14.4,13.4-16.7,26.9-15-1.7-26,4.6-33.3,10-8.2,6.1-14.5,13.4-18.7,21.2-15.4-5.1-34.7-2.8-54,11.3-16.7,12.2-24.4,26.6-24.2,44.9-2.8,15.5,1.1,32.2,11.1,45.8,4,5.4,8.5,9.9,13.5,13.5.7,8.5,3.8,17.1,9.5,24.9,14.2,19.3,43.9,32.1,81.3,4.7,10.8-7.9,18.2-17,22.9-26.6.4.3.9.6,1.3.9,13.3,7.9,29.5,6.4,43.1-3.5,10-7.3,16.3-17,18.6-27.4,1.8-1,3.6-2.2,5.3-3.4,1.5-1.1,3-2.3,4.4-3.7,10.6,1.2,21.9-2.1,31.9-9.5,7.4-5.5,13.8-13,17.2-22.1,10.6.5,21.8-2.9,32-10.4,7.3-5.4,11.7-11.2,14.3-16.5,6.5-.9,12.8-3.6,18.6-7.8,14.4-10.6,22.3-22.6,25.4-34,6.2-1.4,12.5-4.4,18.9-9.1,6.5-4.8,11.1-9.8,14.3-14.8,5.9-1.1,12.4-3.7,19.1-8.6,12-8.8,18.8-21.2,20.3-34.4"></path></g></g><g><path class="cls-4" d="M2233.1,231.5c-.8-14.3-3.4-28.5-8.6-41.9-3.1-8-10.6-28.8-21-29.2-.7,0-1.5.3-1.9.9-2.4,4.4-.3,8.7,1,13.2,1.9,6.4,3.7,12.8,5.1,19.4,2.6,12.4,4.5,24.9,4.6,37.5,0,12.5-1.4,25.1-4.6,37.2-3.5,13.1-10.1,25.1-12.7,38.4-1.7,8.5,10.7,14.1,16.5,8.3,10.3-10.2,14.8-25.1,17.9-39,3.3-14.8,4.6-29.7,3.7-44.8h0Z"></path><path class="cls-4" d="M2166,149.3c-16.1-3.5-35.3,1.4-51.5,3-8.9.9-17.9,1.8-26.8,2.7-9.8,1-20.6,1.4-29.9,4.4-2.8.9-3,5.1.3,5.5,17.6,1.9,37.1-2.8,54.6-4.7l26.8-3c9-1,18.4-1.4,26.8-5.2,1.1-.5,1.1-2.5-.2-2.8h0Z"></path><path class="cls-4" d="M2190.5,150.9c-.2-.3-.4-.6-.7-.8-1-1.1-2.4-1.7-3.9-1.3-.8.2-1.4.5-1.9,1.1-.6.6-.8,1.3-.9,2.1-.2,1.5.6,2.8,1.7,3.7.3.2.6.4.9.6,1.5,1,3.5.8,4.7-.6,1.2-1.4,1.2-3.4,0-4.8h0Z"></path><path class="cls-4" d="M1565.3,377.6c-19.8-47.5-55.5-91.4-95.1-123.9-41.5-34.2-93.5-57-147.9-57.2-14.8,0-29.5,1.6-43.9,4.8-13.2,2.9-28.9,6.8-38.8,16.4-.8.8-.5,2.7.9,2.6,11.2-.3,22.4-4,33.4-5.8,12.8-2,25.8-2.5,38.7-1.6,25.1,1.6,49.9,7,73.4,16.3,45.8,18.2,84.2,50.5,114.7,88.7,17.3,21.7,31.1,45.5,46,68.7,7.1,10.9,23.7,3.4,18.5-9.1h0Z"></path><path class="cls-4" d="M1575.9,462.2c-.8-10.6-2.6-25.9-10.7-33.6-1.8-1.7-4.7-1.4-5.6,1-3.3,8.7-1.3,20-1.4,29.2-.1,11.7-.8,23.2-2.8,34.8-1.9,11.6-5.1,22.9-9.3,33.9-1.9,5-3.9,9.9-5.8,14.9-2.2,5.7-6.2,10.4-6.1,16.7,0,5.4,5.2,9.6,10.5,7.1,9.7-4.7,15.8-19.4,19.7-29,5-12.1,8.3-24.8,10.3-37.7,2-12.4,2-24.8,1.1-37.3h0Z"></path><path class="cls-4" d="M1466.3,174.1c-2.2-17.6-11.2-35-20.6-49.9-9.7-15.4-21-29.2-34.6-41.3-13.4-11.9-28.3-21.6-44.9-28.6-8.8-3.8-17.7-6.8-27-9.2-6.6-1.7-15.3-5.9-21.8-3-1.4.6-1.6,2.4-.7,3.5,4,5,12.2,5.8,17.9,8.2,8.2,3.5,16.3,7.9,23.8,12.7,14.1,9,27.6,19.5,39.2,31.4,10.9,11.2,20.8,23.8,28.7,37.3,8.4,14.6,13.4,30.3,20.5,45.5,5.2,11.1,20.9,4.7,19.5-6.6Z"></path><path class="cls-4" d="M1287.4,42c-5.2.5-10.1,2.6-14.2,5.8-3.6,2.9-7.9,7.6-7.2,12.6.3,1.9,2.6,2.9,4.2,2.1,3.4-1.6,5.7-5.7,8.6-8.2,3.2-2.7,6.9-4.5,10.8-5.9,3.9-1.4,1.4-6.8-2.2-6.4Z"></path><path class="cls-4" d="M1233.7,137.1c-3.7-7.1-7.8-13.9-12.2-20.5-8.9-13.5-19.1-25.7-31.4-36.2-24-20.3-62-38-93.7-27.7-7.7,2.5-8.5,15,.9,15.3,15.7.6,31,.6,46.2,5.2,14.3,4.3,27.5,11.1,39.4,20,11.6,8.6,22.1,18.7,31.4,29.7,4.8,5.7,9.3,11.8,13.5,18,2.9,4.3,5.4,11.2,10.9,12.6,0,0,0,0,.1,0,2-5.4-2.8-11.7-5.2-16.4h0Z"></path><path class="cls-4" d="M1060.4,64.8c-4.2-5.3-13.9-.9-18,2.4-5.2,4.3-8.9,11.9-6,18.5.8,1.7,3.2,1.7,4.2.3,2.9-3.9,4.8-8.7,8.7-11.8,3.3-2.7,8.8-3.6,11.3-7,.5-.7.4-1.7-.1-2.4h0Z"></path><path class="cls-4" d="M1016.6,208.1c-1.9-11-4.3-22-7.3-32.8-5.5-19.7-13.9-38.9-26.3-55.3-11.7-15.5-26.7-28.1-44.3-36.3-9.9-4.6-20.6-7.5-31.5-8.7-10.9-1.2-24.7-2.7-31.3,7.9-1.7,2.7-2,7.2.5,9.6,8,7.4,16,5.3,26,6.1,9.8.7,19.4,3.1,28.5,7,15.5,6.7,28.3,18.2,39,31,11.9,14.2,20.6,30.5,27.5,47.6,4,9.9,7,20.2,10,30.5,2.6,8.8,4,19,8.4,27.1,1,1.9,3.7,1.3,4-.8,1.4-10.4-1.5-22.6-3.3-32.8h0Z"></path><path class="cls-4" d="M847.6,104.4c-2.4-5.8-15.9,1.4-18.5,3.1-4.9,3.2-9.1,7.2-12.5,11.9-6.3,8.6-11.1,22.5-6.4,32.8,1.2,2.6,5,2.8,6.6.5,3-4.5,4.6-9.9,7.2-14.6,2.9-5.2,5.4-10.1,9.1-14.8,3-3.8,16.5-13.8,14.5-18.8h0Z"></path><path class="cls-4" d="M29.9,383.2c-2-1.3-4.3-.7-5.8,1.1-.8,1-1.9,2.6-2.2,3.9-.5,1.6,0,3.5,1.5,4.5,1.6,1,3.2.8,4.7-.3.7-.5,1.2-1.2,1.7-1.9.4-.5.9-1,1.2-1.5,1.2-1.8.9-4.6-1.1-5.8Z"></path><path class="cls-4" d="M53.5,369.7c-4.2-3.2-11.1.7-14.9,3.1-2.1,1.3-4.7,2.7-5.7,5-.7,1.6-.7,4.1,1.2,4.9,3.9,1.6,7.5-2,10.8-3.6,3.3-1.6,8.1-2.9,9.5-6.5.4-1,0-2.2-.9-2.8h0Z"></path><path class="cls-4" d="M1231.2,526.8c1.3-3.5,7.1-17.8-.5-18.9-9.8-1.5-16.6,12.1-20.2,19.1-5.7,10.7-9.1,22.2-11.2,34.1-2.1,12-2.4,24.2-.8,36.3,1.2,9.6,4.4,25.5,13.7,30.6,4.2,2.3,8.9,1.1,10.8-3.5,2.2-5.1.7-9.7.2-15-.5-5.5-1.3-11-1.8-16.6-1.1-11.4-.8-22.9,1-34.2,1.8-10.9,4.9-21.5,8.9-31.8h0Z"></path><path class="cls-4" d="M1233,678.2c-1.2-3.6-3.6-6.7-5.1-10.3-1.5-3.7-.7-8.3-2.6-11.7-1.1-2-3.5-2.1-5-.4-3,3.6-1.3,10.4.1,14.4,1.5,4.2,4.9,9.4,9.4,10.6,1.5.4,3.7-.8,3.1-2.7h0Z"></path><path class="cls-4" d="M1369.1,1010.2c-3.3-9.4-6.7-18.8-9.7-28.4-6.5-20.5-11.6-41.3-14.9-62.5-6.6-42.3-6.9-84.7-1.8-127.1.5-3.9-5.7-5.3-6.8-1.4-12.5,41.7-16.3,86.3-11.8,129.6,2.3,21.8,6.3,43.5,12.5,64.5,3.1,10.5,6.4,21,11,30.9,3.7,8,8.6,21.5,18.3,23.5,2.2.4,5.1.2,6.3-2.1,4.5-8.5-.2-18.7-3.1-27.1h0Z"></path><path class="cls-4" d="M1415.7,1578.9c1.2-61.7-2.2-123.6-10.8-184.7-2.3-16.8-5-33.6-8.2-50.3-3.2-16.7-5.2-34.3-11.3-50.3-.7-1.9-3.9-1.2-3.9.8,0,14.5,2.9,28.9,4.6,43.3,1.8,15.3,3,30.7,4.3,46.1,2.6,30.5,4.4,61.1,5.1,91.7,1.3,61.5.4,122.9-5.1,184.3-1.5,17-3.4,33.9-5.2,50.8-1.7,16.4-6.2,34.8-3.8,51.2,1.2,8.1,11.5,7.1,14.5,1.1,6.4-13,7.1-30,9.3-44.2,2.4-15.2,3.9-30.5,5.4-45.8,3-31.2,4.5-62.5,5.1-93.8h0Z"></path><path class="cls-4" d="M975.3,1751.8c-1.4-1.4-3.9-.8-4.1,1.4-.4,4,.6,8,1.1,11.9.6,4.7.4,9.3-.3,13.9-.8,5.5,8,6.2,8.7.6,1.1-8.7,1.4-21.2-5.4-27.9h0Z"></path><path class="cls-4" d="M960.3,1726.1c-.9-2.9-3.3-7-6-8.5-1-.5-2.7-.2-2.6,1.3,0,1.3.4,2.5.8,3.7.5,1.7.5,3.1.6,4.9.2,2.9.2,6.3,1.3,9,.9,2.1,3.7,2,5,.4,2.2-2.8,2.1-7.5,1-10.8h0Z"></path><path class="cls-4" d="M954.8,1629.3c0-2.7-3.8-3.1-4.2-.3-2,14.8-2.1,28.6-1.5,43.4,0,1.9,2.7,2.2,3,.2,2-14.7,3.2-28.5,2.8-43.3h0Z"></path><path class="cls-4" d="M966.7,882.4c.2-9,3.5-18.4,2.3-27.3-.2-1.5-2.2-2.2-3.3-1.1-7,6.7-8.3,18.5-8.9,27.7-.7,10.1-.5,23.1,5.2,31.9,1.9,2.8,7.1,2.8,7.2-1.4.2-9.9-2.8-19.7-2.6-29.8h0Z"></path><path class="cls-4" d="M962.4,1047.1c0,0-.1,0-.2,0-6.1,8.1-5,20.8-5.6,30.5-.8,11.4-1.4,23.3-.4,34.7.2,1.7,3.1,1.9,3.4.2,2.5-11.2,3.5-23,4.2-34.4.7-9.7,3.5-22.1-1.5-31h0Z"></path></g></g><path class="cls-3" d="M486.6,63.7c30.5,8.1,38.6,17.4,45.1,54,.5,2.7,4.3,2.7,4.8,0,6.5-36.6,14.6-46,45.1-54,2.4-.6,2.4-4,0-4.7-30.5-8.1-38.6-17.4-45.1-54-.5-2.7-4.3-2.7-4.8,0-6.5,36.6-14.6,46-45.1,54-2.4.6-2.4,4,0,4.7h0Z"></path><path class="cls-3" d="M1462.8,883.4c30.5,8.1,38.6,17.4,45.1,54,.5,2.7,4.3,2.7,4.8,0,6.5-36.6,14.6-46,45.1-54,2.4-.6,2.4-4,0-4.7-30.5-8.1-38.6-17.4-45.1-54-.5-2.7-4.3-2.7-4.8,0-6.5,36.6-14.6,46-45.1,54-2.4.6-2.4,4,0,4.7Z"></path><path class="cls-3" d="M1615.8,1027.9c20.4,5.4,25.8,11.6,30.2,36.2.3,1.8,2.9,1.8,3.2,0,4.4-24.5,9.8-30.8,30.2-36.2,1.6-.4,1.6-2.7,0-3.1-20.4-5.4-25.8-11.6-30.2-36.2-.3-1.8-2.9-1.8-3.2,0-4.4,24.5-9.8,30.8-30.2,36.2-1.6.4-1.6,2.7,0,3.1Z"></path><path class="cls-3" d="M653.2,142.2c18.4,4.9,23.3,10.5,27.3,32.7.3,1.6,2.6,1.6,2.9,0,3.9-22.1,8.8-27.8,27.3-32.7,1.5-.4,1.5-2.4,0-2.8-18.4-4.9-23.3-10.5-27.3-32.7-.3-1.6-2.6-1.6-2.9,0-3.9,22.1-8.8,27.8-27.3,32.7-1.5.4-1.5,2.4,0,2.8Z"></path><path class="cls-3" d="M668.4,644.3c23.1,6.1,29.3,13.2,34.2,41,.4,2,3.2,2,3.6,0,5-27.8,11.1-34.9,34.2-41,1.8-.5,1.8-3.1,0-3.5-23.1-6.1-29.3-13.2-34.2-41-.4-2-3.2-2-3.6,0-5,27.8-11.1,34.9-34.2,41-1.8.5-1.8,3.1,0,3.5h0Z"></path></g></g></g></g></svg> 