<?xml version="1.0" encoding="UTF-8"?> <svg xmlns="http://www.w3.org/2000/svg" id="Layer_2" viewBox="0 0 1618.17 1372.75"><defs><style> .cls-1 { fill: #fff0dc; } .cls-2 { fill: #ffe0bb; } .cls-3 { fill: none; stroke: #292222; stroke-linecap: round; stroke-linejoin: round; stroke-width: 6px; } </style></defs><g id="_x2014_ÎÓÈ_x5F_1"><g><g><polygon class="cls-1" points="3 697.35 8.64 1249.62 1613.11 241.31 1614.41 240.24 3 697.35"></polygon><polygon class="cls-2" points="206.61 1125.22 231.94 1369.75 1613.11 241.31 206.61 1125.22"></polygon><polygon class="cls-1" points="271.39 3 72.71 469.59 1615.05 239.7 271.39 3"></polygon><polygon class="cls-2" points="72.71 469.59 236 631.25 1614.44 240.24 1615.05 239.7 72.71 469.59"></polygon></g><g><polygon class="cls-3" points="1615.05 239.7 271.39 3 72.71 469.59 1615.05 239.7"></polygon><polyline class="cls-3" points="1614.41 240.24 3 697.35 8.64 1249.62 1615.15 240.02 1615.17 240.02"></polyline><line class="cls-3" x1="1615.15" y1="240.02" x2="1614.44" y2="240.24"></line><polyline class="cls-3" points="1615.05 239.7 1614.44 240.24 1614.41 240.24 231.94 1369.75 206.61 1125.22"></polyline><line class="cls-3" x1="72.71" y1="469.59" x2="236" y2="631.25"></line></g></g></g></svg> 