<?xml version="1.0" encoding="UTF-8"?> <svg xmlns="http://www.w3.org/2000/svg" id="Layer_2" viewBox="0 0 6405.72 2307.49"><defs><style> .cls-1, .cls-2 { fill: none; } .cls-3 { fill: #fff0dc; } .cls-4 { fill: #ffe0bb; } .cls-2 { stroke: #292222; stroke-linecap: round; stroke-linejoin: round; stroke-width: 6px; } </style></defs><g id="_x2014_ÎÓÈ_x5F_1"><g><path class="cls-2" d="M1293.17,1460.03c-163.02-222.68-419.32-374.74-692.89-411.06-101.79-13.52-208.83-10.94-302.42,31.28-93.6,42.22-171.09,130.11-179.32,232.46-13.33,165.8,167.12,300.66,332.64,284.28,165.52-16.38,301.76-143.95,382.59-289.32,80.83-145.37,118.25-310.07,171.79-467.55,53.54-157.48,129.16-315.95,262.78-415,193.88-143.71,480.27-124.39,677.28,14.98,197.02,139.37,308.32,378.76,329.91,619.13,7.77,86.5,4.14,177.52-36.57,254.24-40.7,76.72-126.44,134.67-212.1,120.35-128.34-21.46-182.58-198.59-116.84-310.89,65.74-112.3,206.97-160,337.08-158.03,220.19,3.33,422.65,120.49,596.28,255.95,173.62,135.46,331.48,293.5,523,402.2,191.52,108.7,431.5,162.54,632.23,71.97,198.68-89.64,321.51-322.51,283.28-537.1-18.89-106.03-80.14-211.25-179.91-251.81-125.45-51-278.62,20.92-344.54,139.21-65.92,118.29-55.73,267.85-1.82,392.08,53.91,124.23,146.6,227.31,243.42,322,219.33,214.48,468.41,398.49,737.88,545.11"></path><path class="cls-2" d="M4880.51,1292.26c172.23-145.96,269.63-374.48,238.04-600.13-28.19-201.41-171.91-382.6-377.35-421.27-201.14-37.86-502.7,69.12-534.04,298.88-27.69,202.99,168.13,348.98,351.11,369.89,170.76,19.51,332.72-51.35,470.21-146.57,81.46-56.42,156.29-122.17,225.94-192.53,86.15-87.04,179.08-169.23,311.08-141.55,84.88,17.8,158.5,77.04,200.97,152.65,42.48,75.62,55.07,166.11,42.8,251.96-12.27,85.86-48.39,167.22-97.16,238.94-72.97,107.31-176.89,195.6-299.37,238.5-60.74,21.28-133.74,29.37-184.8-9.8-100.32-76.96-36.39-223.61,45.91-285.52,78.39-58.97,182.27-73.73,276.25-49.71,139.97,35.77,224.68,153.49,262.38,287.04,25.72,91.12,32.68,186.27,45.59,280.06,27.35,198.72,65.28,430.46,237.89,557.72,42.9,31.63,91.73,54.54,143.13,68.45,53.27,14.41,108.53,20.71,163.61,22.11"></path><g><g><polygon class="cls-3" points="4976.56 1243.01 5095.12 1372.85 4502.6 1486.3 4502.07 1486.34 4976.56 1243.01"></polygon><polygon class="cls-4" points="5022.02 1386.84 5069.19 1449.29 4502.6 1486.3 5022.02 1386.84"></polygon><polygon class="cls-3" points="4763.33 1139.57 4910.88 1205.1 4501.8 1486.35 4763.33 1139.57"></polygon><polygon class="cls-4" points="4910.88 1205.1 4907.95 1278.19 4502.06 1486.34 4501.8 1486.35 4910.88 1205.1"></polygon></g><g><polygon class="cls-2" points="4501.8 1486.35 4763.33 1139.57 4910.88 1205.1 4501.8 1486.35"></polygon><polyline class="cls-2" points="4502.07 1486.34 4976.56 1243.01 5095.12 1372.85 4501.85 1486.45 4501.84 1486.45"></polyline><line class="cls-2" x1="4501.85" y1="1486.45" x2="4502.06" y2="1486.34"></line><polyline class="cls-2" points="4501.8 1486.35 4502.06 1486.34 4502.07 1486.34 5069.19 1449.29 5022.02 1386.84"></polyline><line class="cls-2" x1="4910.88" y1="1205.1" x2="4907.95" y2="1278.19"></line></g></g><g><g><polygon class="cls-3" points="1222.18 1440.2 1109.54 1612.34 1815.09 1632.51 1815.71 1632.45 1222.18 1440.2"></polygon><polygon class="cls-4" points="1196.59 1614.83 1153.79 1695.77 1815.09 1632.51 1196.59 1614.83"></polygon><polygon class="cls-3" points="1449.09 1280.83 1290.94 1384.12 1816.02 1632.41 1449.09 1280.83"></polygon><polygon class="cls-4" points="1290.94 1384.12 1308 1467.99 1815.72 1632.45 1816.02 1632.41 1290.94 1384.12"></polygon></g><g><polygon class="cls-2" points="1816.02 1632.41 1449.09 1280.83 1290.94 1384.12 1816.02 1632.41"></polygon><polyline class="cls-2" points="1815.71 1632.45 1222.18 1440.2 1109.54 1612.34 1815.99 1632.53 1815.99 1632.54"></polyline><line class="cls-2" x1="1815.99" y1="1632.53" x2="1815.72" y2="1632.45"></line><polyline class="cls-2" points="1816.02 1632.41 1815.72 1632.45 1815.71 1632.45 1153.79 1695.77 1196.59 1614.83"></polyline><line class="cls-2" x1="1290.94" y1="1384.12" x2="1308" y2="1467.99"></line></g></g><rect class="cls-1" width="6000" height="2000"></rect></g></g></svg> 